<?xml version="1.0" encoding="UTF-8"?>
<!-- This file is generated by npm run build:icons -->
<svg xmlns="http://www.w3.org/2000/svg" xmlns:xlink="http://www.w3.org/1999/xlink" width="0" height="0">
<defs>
<symbol viewBox="0 0 15 15" fill="none" id="minus">
  <path     fill-rule="evenodd"
    clip-rule="evenodd"
    d="M2.25 7.5C2.25 7.22386 2.47386 7 2.75 7H12.25C12.5261 7 12.75 7.22386 12.75 7.5C12.75 7.77614 12.5261 8 12.25 8H2.75C2.47386 8 2.25 7.77614 2.25 7.5Z"
    fill="currentColor"
  ></path>
</symbol>
<symbol viewBox="0 0 15 15" fill="none" id="trash">
  <path     fill-rule="evenodd"
    clip-rule="evenodd"
    d="M5.5 1C5.22386 1 5 1.22386 5 1.5C5 1.77614 5.22386 2 5.5 2H9.5C9.77614 2 10 1.77614 10 1.5C10 1.22386 9.77614 1 9.5 1H5.5ZM3 3.5C3 3.22386 3.22386 3 3.5 3H5H10H11.5C11.7761 3 12 3.22386 12 3.5C12 3.77614 11.7761 4 11.5 4H11V12C11 12.5523 10.5523 13 10 13H5C4.44772 13 4 12.5523 4 12V4L3.5 4C3.22386 4 3 3.77614 3 3.5ZM5 4H10V12H5V4Z"
    fill="currentColor"
  ></path>
</symbol>
</defs>
</svg>
